<svg height="522.01" viewBox="0 0 512 522.01" width="512" xmlns="http://www.w3.org/2000/svg">
  <!-- Sfondo con bordi smussati -->
  <rect width="512" height="512" rx="80" ry="80" fill="#020617" style="fill:rgb(2, 6, 23);stroke:none;color:rgb(255, 255, 255);stroke-width:1px;stroke-linecap:butt;stroke-linejoin:miter;opacity:1;font-family:&quot;Anthropic Sans&quot;, -apple-system, BlinkMacSystemFont, &quot;Segoe UI&quot;, sans-serif;font-size:16px;font-weight:400;text-anchor:start;dominant-baseline:auto"/>

  <defs>
    <linearGradient id="GradientFill_1" gradientUnits="userSpaceOnUse" x1="77.885" x2="434.054" y1="392.256" y2="36.087">
      <stop offset="0" stop-color="#064E3B"/>
      <stop offset="0.45" stop-color="#10B981"/>
      <stop offset="1" stop-color="#34D399"/>
    </linearGradient>
  </defs>

  <!-- Scudo scalato e centrato con padding, struttura originale intatta -->
  <g transform="translate(56, 56) scale(0.78)" style="fill:rgb(0, 0, 0);stroke:none;color:rgb(255, 255, 255);stroke-width:1px;stroke-linecap:butt;stroke-linejoin:miter;opacity:1;font-family:&quot;Anthropic Sans&quot;, -apple-system, BlinkMacSystemFont, &quot;Segoe UI&quot;, sans-serif;font-size:16px;font-weight:400;text-anchor:start;dominant-baseline:auto">
    <path d="m231.736 502.663c-37.846-17.1-76.75-38.955-109.5-67.219-33.362-28.783-60.236-64.122-73.13-107.714-4.679-15.815-5.118-36.753-5.453-52.774l-.032-1.488c-.232-10.966-.291-22.017-.248-33.1.043-11.122.185-22.095.355-33.006.2-12.854.5-25.2.807-37.542.47-19.086.94-38.18 1-56.84l.13-38.758a12.8 12.8 0 0 1 11.206-12.7l38.429-4.886c19.779-2.515 43.611-6.372 66.807-12.572 22.4-5.987 43.878-14.1 59.625-25.2l23.47-16.533a12.823 12.823 0 0 1 14.548-.141l24.034 14.39a292.827 292.827 0 0 0 62.4 28.145 297.314 297.314 0 0 0 67.282 12.875l40.8 3.1a12.828 12.828 0 0 1 11.875 12.793h.015v40.921c0 20.142.564 38.346 1.127 56.531.367 11.84.733 23.673.963 35.954.181 9.678.326 19.423.374 29.307s0 19.708-.214 29.456c-.176 8.15-.395 16.719-.925 24.579a199.1 199.1 0 0 1 -3.144 25.406c-9.469 47.282-36.494 85.408-71.276 116.233-34 30.128-75.271 53.122-114.471 70.8l-18.164 8.19a12.79 12.79 0 0 1 -10.535 0l-18.158-8.2zm-92.749-86.584c30.535 26.347 67.317 46.958 103.284 63.2l12.9 5.825 12.891-5.812c37.311-16.823 76.39-38.526 108.049-66.584 30.873-27.36 54.8-60.911 63.049-102.085a172.952 172.952 0 0 0 2.742-22.095c.565-8.381.769-16.129.926-23.375.209-9.668.26-19.282.213-28.854s-.192-19.266-.374-29c-.216-11.521-.589-23.584-.963-35.654-.613-19.8-1.227-39.621-1.227-57.233v-29.031l-28.914-2.2a322.974 322.974 0 0 1 -73.1-13.977 318.373 318.373 0 0 1 -67.823-30.651l-17.478-10.464-16.678 11.749c-18.537 13.058-42.8 22.341-67.752 29.009-24.153 6.456-49.28 10.512-70.217 13.174l-27.3 3.471-.092 27.484c-.065 19.357-.534 38.4-1 57.442-.31 12.6-.62 25.2-.807 37.241-.17 10.967-.314 21.912-.355 32.705-.042 10.828.017 21.693.248 32.6l.032 1.488c.3 14.467.7 33.373 4.449 46.051 11.34 38.328 35.365 69.745 65.3 95.573zm-38.1-315.65a12.8 12.8 0 0 0 -11.2 12.695c-.032 9.672-.383 25.347-.792 43.659-1.275 57.027-3.113 139.29 2.547 158.422q13.094 44.256 53.551 81.429 39.4 36.2 104.92 65.795a12.787 12.787 0 0 0 10.534 0q70.111-31.612 110.025-69.7 41.295-39.406 50.581-85.753c5.224-26.108 3.283-96.5 1.868-147.773-.488-17.709-.909-32.981-.909-44.79h-.012a12.829 12.829 0 0 0 -11.875-12.793 341.421 341.421 0 0 1 -77.469-14.86 336.793 336.793 0 0 1 -70.968-31.955 12.823 12.823 0 0 0 -14.528.155q-22.914 16.142-59 27.457-37.089 11.63-87.268 18.012zm94.894 6.47q-34.789 10.908-80.631 17.427c-.142 9.164-.394 20.444-.674 32.959-1.237 55.377-3.023 135.26 1.543 150.7q11.061 37.388 46.328 69.789 34.766 31.942 92.835 58.872 62.376-28.839 97.627-62.476 35.346-33.731 43.055-72.207c4.733-23.654 2.844-92.154 1.467-142.055-.357-12.939-.681-24.706-.861-33.771a364.411 364.411 0 0 1 -71.543-14.891 360.926 360.926 0 0 1 -69.927-30.703q-24.374 15.431-59.216 26.357zm0 0q-34.789 10.908-80.631 17.427c-.142 9.164-.394 20.444-.674 32.959-1.237 55.377-3.023 135.26 1.543 150.7q11.061 37.388 46.328 69.789 34.766 31.942 92.835 58.872 62.376-28.839 97.627-62.476 35.346-33.731 43.055-72.207c4.733-23.654 2.844-92.154 1.467-142.055-.357-12.939-.681-24.706-.861-33.771a364.411 364.411 0 0 1 -71.543-14.891 360.926 360.926 0 0 1 -69.927-30.703q-24.374 15.431-59.216 26.357z" fill="url(#GradientFill_1)" fill-rule="evenodd" style="stroke:none;color:rgb(255, 255, 255);stroke-width:1px;stroke-linecap:butt;stroke-linejoin:miter;opacity:1;font-family:&quot;Anthropic Sans&quot;, -apple-system, BlinkMacSystemFont, &quot;Segoe UI&quot;, sans-serif;font-size:16px;font-weight:400;text-anchor:start;dominant-baseline:auto"/>
  </g>
</svg>